<mxfile host="www.draw.io" modified="2019-11-22T02:50:26.478Z" agent="Mozilla/5.0 (Windows NT 10.0; Win64; x64) AppleWebKit/537.36 (KHTML, like Gecko) Chrome/78.0.3904.108 Safari/537.36" etag="wAqiNwaPKYjAo1lHNF7R" version="12.2.9" type="github" pages="2">
  <diagram id="fQpwoXlyogXdvXNXns_U" name="Page-1">
    <mxGraphModel dx="2032" dy="764" grid="1" gridSize="10" guides="1" tooltips="1" connect="1" arrows="1" fold="1" page="1" pageScale="1" pageWidth="850" pageHeight="1100" math="0" shadow="0">
      <root>
        <mxCell id="0"/>
        <mxCell id="1" parent="0"/>
        <mxCell id="KrvGtSLhtGiPdsn1LI4o-12" value="instanceName : className" style="rounded=0;whiteSpace=wrap;html=1;" vertex="1" parent="1">
          <mxGeometry x="-248" y="20" width="180" height="60" as="geometry"/>
        </mxCell>
        <mxCell id="KrvGtSLhtGiPdsn1LI4o-13" value="className" style="rounded=0;whiteSpace=wrap;html=1;" vertex="1" parent="1">
          <mxGeometry x="-28" y="20" width="120" height="60" as="geometry"/>
        </mxCell>
        <mxCell id="KrvGtSLhtGiPdsn1LI4o-15" value="farm : Farm" style="shape=umlLifeline;perimeter=lifelinePerimeter;whiteSpace=wrap;html=1;container=1;collapsible=0;recursiveResize=0;outlineConnect=0;" vertex="1" parent="1">
          <mxGeometry x="-180" y="130" width="100" height="430" as="geometry"/>
        </mxCell>
        <mxCell id="KrvGtSLhtGiPdsn1LI4o-18" value="" style="html=1;points=[];perimeter=orthogonalPerimeter;" vertex="1" parent="KrvGtSLhtGiPdsn1LI4o-15">
          <mxGeometry x="45" y="56" width="10" height="364" as="geometry"/>
        </mxCell>
        <mxCell id="KrvGtSLhtGiPdsn1LI4o-16" value="lifeline - life of the object" style="text;html=1;align=center;verticalAlign=middle;resizable=0;points=[];;autosize=1;" vertex="1" parent="1">
          <mxGeometry x="-270" y="170" width="140" height="20" as="geometry"/>
        </mxCell>
        <mxCell id="KrvGtSLhtGiPdsn1LI4o-17" value="object" style="text;html=1;align=center;verticalAlign=middle;resizable=0;points=[];;autosize=1;" vertex="1" parent="1">
          <mxGeometry x="-160" y="108" width="50" height="20" as="geometry"/>
        </mxCell>
        <mxCell id="KrvGtSLhtGiPdsn1LI4o-19" value="activation - when is this &lt;br&gt;object/instance &lt;br&gt;actively participating &lt;br&gt;in the sequence" style="text;html=1;align=center;verticalAlign=middle;resizable=0;points=[];;autosize=1;" vertex="1" parent="1">
          <mxGeometry x="-270" y="260" width="140" height="60" as="geometry"/>
        </mxCell>
        <mxCell id="KrvGtSLhtGiPdsn1LI4o-20" value=": Yield" style="shape=umlLifeline;perimeter=lifelinePerimeter;whiteSpace=wrap;html=1;container=1;collapsible=0;recursiveResize=0;outlineConnect=0;" vertex="1" parent="1">
          <mxGeometry x="2" y="128" width="100" height="432" as="geometry"/>
        </mxCell>
        <mxCell id="KrvGtSLhtGiPdsn1LI4o-23" value="" style="html=1;verticalAlign=bottom;startArrow=oval;startFill=1;endArrow=block;startSize=8;" edge="1" parent="1">
          <mxGeometry width="60" relative="1" as="geometry">
            <mxPoint x="-320" y="140" as="sourcePoint"/>
            <mxPoint x="-180" y="140" as="targetPoint"/>
          </mxGeometry>
        </mxCell>
        <mxCell id="KrvGtSLhtGiPdsn1LI4o-24" value="init()" style="text;html=1;align=center;verticalAlign=middle;resizable=0;points=[];;autosize=1;" vertex="1" parent="1">
          <mxGeometry x="-270" y="140" width="40" height="20" as="geometry"/>
        </mxCell>
        <mxCell id="KrvGtSLhtGiPdsn1LI4o-30" value="corn : Crop" style="shape=umlLifeline;perimeter=lifelinePerimeter;whiteSpace=wrap;html=1;container=1;collapsible=0;recursiveResize=0;outlineConnect=0;" vertex="1" parent="1">
          <mxGeometry x="142" y="210" width="100" height="350" as="geometry"/>
        </mxCell>
        <mxCell id="KrvGtSLhtGiPdsn1LI4o-31" value="" style="endArrow=open;endFill=1;endSize=12;html=1;" edge="1" parent="1">
          <mxGeometry width="160" relative="1" as="geometry">
            <mxPoint x="-118" y="230" as="sourcePoint"/>
            <mxPoint x="132" y="230" as="targetPoint"/>
          </mxGeometry>
        </mxCell>
        <mxCell id="KrvGtSLhtGiPdsn1LI4o-32" value="" style="endArrow=open;endFill=1;endSize=12;html=1;" edge="1" parent="1">
          <mxGeometry width="160" relative="1" as="geometry">
            <mxPoint x="-78" y="140" as="sourcePoint"/>
            <mxPoint x="-8" y="140" as="targetPoint"/>
          </mxGeometry>
        </mxCell>
        <mxCell id="KrvGtSLhtGiPdsn1LI4o-34" value="" style="endArrow=open;endFill=1;endSize=12;html=1;" edge="1" parent="1">
          <mxGeometry width="160" relative="1" as="geometry">
            <mxPoint x="-118" y="330" as="sourcePoint"/>
            <mxPoint x="252" y="330" as="targetPoint"/>
          </mxGeometry>
        </mxCell>
        <mxCell id="KrvGtSLhtGiPdsn1LI4o-37" value="new" style="text;html=1;align=center;verticalAlign=middle;resizable=0;points=[];;autosize=1;" vertex="1" parent="1">
          <mxGeometry x="32" y="110" width="40" height="20" as="geometry"/>
        </mxCell>
        <mxCell id="KrvGtSLhtGiPdsn1LI4o-38" value="new" style="text;html=1;align=center;verticalAlign=middle;resizable=0;points=[];;autosize=1;" vertex="1" parent="1">
          <mxGeometry x="172" y="190" width="40" height="20" as="geometry"/>
        </mxCell>
        <mxCell id="KrvGtSLhtGiPdsn1LI4o-41" value="Yield()" style="text;html=1;align=center;verticalAlign=middle;resizable=0;points=[];;autosize=1;" vertex="1" parent="1">
          <mxGeometry x="-68" y="140" width="50" height="20" as="geometry"/>
        </mxCell>
        <mxCell id="KrvGtSLhtGiPdsn1LI4o-42" value="Yield()" style="text;html=1;align=center;verticalAlign=middle;resizable=0;points=[];;autosize=1;" vertex="1" parent="1">
          <mxGeometry x="62" y="230" width="50" height="20" as="geometry"/>
        </mxCell>
        <mxCell id="KrvGtSLhtGiPdsn1LI4o-45" value=": fieldBuilder" style="shape=umlLifeline;perimeter=lifelinePerimeter;whiteSpace=wrap;html=1;container=1;collapsible=0;recursiveResize=0;outlineConnect=0;" vertex="1" parent="1">
          <mxGeometry x="260" y="310" width="100" height="250" as="geometry"/>
        </mxCell>
        <mxCell id="KrvGtSLhtGiPdsn1LI4o-63" value="" style="html=1;points=[];perimeter=orthogonalPerimeter;" vertex="1" parent="KrvGtSLhtGiPdsn1LI4o-45">
          <mxGeometry x="45" y="75" width="10" height="25" as="geometry"/>
        </mxCell>
        <mxCell id="KrvGtSLhtGiPdsn1LI4o-65" value="" style="html=1;points=[];perimeter=orthogonalPerimeter;" vertex="1" parent="KrvGtSLhtGiPdsn1LI4o-45">
          <mxGeometry x="45" y="150" width="10" height="25" as="geometry"/>
        </mxCell>
        <mxCell id="KrvGtSLhtGiPdsn1LI4o-64" value="" style="html=1;points=[];perimeter=orthogonalPerimeter;" vertex="1" parent="KrvGtSLhtGiPdsn1LI4o-45">
          <mxGeometry x="45" y="112.5" width="10" height="25" as="geometry"/>
        </mxCell>
        <mxCell id="KrvGtSLhtGiPdsn1LI4o-66" value="" style="html=1;points=[];perimeter=orthogonalPerimeter;" vertex="1" parent="KrvGtSLhtGiPdsn1LI4o-45">
          <mxGeometry x="45" y="190" width="10" height="25" as="geometry"/>
        </mxCell>
        <mxCell id="KrvGtSLhtGiPdsn1LI4o-47" value="" style="endArrow=open;endFill=1;endSize=12;html=1;" edge="1" parent="1">
          <mxGeometry width="160" relative="1" as="geometry">
            <mxPoint x="-120" y="400" as="sourcePoint"/>
            <mxPoint x="300" y="400" as="targetPoint"/>
          </mxGeometry>
        </mxCell>
        <mxCell id="KrvGtSLhtGiPdsn1LI4o-48" value="" style="endArrow=open;endFill=1;endSize=12;html=1;" edge="1" parent="1">
          <mxGeometry width="160" relative="1" as="geometry">
            <mxPoint x="-123" y="434.5" as="sourcePoint"/>
            <mxPoint x="297" y="434.5" as="targetPoint"/>
          </mxGeometry>
        </mxCell>
        <mxCell id="KrvGtSLhtGiPdsn1LI4o-49" value="" style="endArrow=open;endFill=1;endSize=12;html=1;" edge="1" parent="1">
          <mxGeometry width="160" relative="1" as="geometry">
            <mxPoint x="-118" y="470" as="sourcePoint"/>
            <mxPoint x="302" y="470" as="targetPoint"/>
          </mxGeometry>
        </mxCell>
        <mxCell id="KrvGtSLhtGiPdsn1LI4o-50" value="setEdges()" style="text;html=1;align=center;verticalAlign=middle;resizable=0;points=[];;autosize=1;" vertex="1" parent="1">
          <mxGeometry x="207" y="380" width="70" height="20" as="geometry"/>
        </mxCell>
        <mxCell id="KrvGtSLhtGiPdsn1LI4o-51" value="setCrop()" style="text;html=1;align=center;verticalAlign=middle;resizable=0;points=[];;autosize=1;" vertex="1" parent="1">
          <mxGeometry x="200" y="450" width="70" height="20" as="geometry"/>
        </mxCell>
        <mxCell id="KrvGtSLhtGiPdsn1LI4o-52" value="setLifeline()" style="text;html=1;align=center;verticalAlign=middle;resizable=0;points=[];;autosize=1;" vertex="1" parent="1">
          <mxGeometry x="200" y="415" width="80" height="20" as="geometry"/>
        </mxCell>
        <mxCell id="KrvGtSLhtGiPdsn1LI4o-53" value="" style="endArrow=open;endFill=1;endSize=12;html=1;" edge="1" parent="1">
          <mxGeometry width="160" relative="1" as="geometry">
            <mxPoint x="-118" y="512" as="sourcePoint"/>
            <mxPoint x="302" y="512" as="targetPoint"/>
          </mxGeometry>
        </mxCell>
        <mxCell id="KrvGtSLhtGiPdsn1LI4o-54" value="build()" style="text;html=1;align=center;verticalAlign=middle;resizable=0;points=[];;autosize=1;" vertex="1" parent="1">
          <mxGeometry x="217" y="490" width="50" height="20" as="geometry"/>
        </mxCell>
        <mxCell id="KrvGtSLhtGiPdsn1LI4o-61" value=": Field" style="shape=umlLifeline;perimeter=lifelinePerimeter;whiteSpace=wrap;html=1;container=1;collapsible=0;recursiveResize=0;outlineConnect=0;" vertex="1" parent="1">
          <mxGeometry x="375" y="490" width="100" height="70" as="geometry"/>
        </mxCell>
        <mxCell id="KrvGtSLhtGiPdsn1LI4o-62" value="" style="endArrow=open;endFill=1;endSize=12;html=1;" edge="1" parent="1">
          <mxGeometry width="160" relative="1" as="geometry">
            <mxPoint x="320" y="509.5" as="sourcePoint"/>
            <mxPoint x="370" y="510" as="targetPoint"/>
          </mxGeometry>
        </mxCell>
        <mxCell id="KrvGtSLhtGiPdsn1LI4o-67" value="" style="endArrow=open;endFill=1;endSize=12;html=1;" edge="1" parent="1" source="KrvGtSLhtGiPdsn1LI4o-68">
          <mxGeometry width="160" relative="1" as="geometry">
            <mxPoint x="300" y="410" as="sourcePoint"/>
            <mxPoint x="-120" y="410" as="targetPoint"/>
          </mxGeometry>
        </mxCell>
        <mxCell id="KrvGtSLhtGiPdsn1LI4o-68" value="fieldBuilder" style="text;html=1;align=center;verticalAlign=middle;resizable=0;points=[];;autosize=1;" vertex="1" parent="1">
          <mxGeometry x="-103" y="400" width="70" height="20" as="geometry"/>
        </mxCell>
        <mxCell id="KrvGtSLhtGiPdsn1LI4o-69" value="" style="endArrow=open;endFill=1;endSize=12;html=1;" edge="1" parent="1" target="KrvGtSLhtGiPdsn1LI4o-68">
          <mxGeometry width="160" relative="1" as="geometry">
            <mxPoint x="300" y="410" as="sourcePoint"/>
            <mxPoint x="-120" y="410" as="targetPoint"/>
          </mxGeometry>
        </mxCell>
        <mxCell id="KrvGtSLhtGiPdsn1LI4o-70" value="" style="endArrow=open;endFill=1;endSize=12;html=1;" edge="1" parent="1" source="KrvGtSLhtGiPdsn1LI4o-71">
          <mxGeometry width="160" relative="1" as="geometry">
            <mxPoint x="297" y="445" as="sourcePoint"/>
            <mxPoint x="-123" y="445" as="targetPoint"/>
          </mxGeometry>
        </mxCell>
        <mxCell id="KrvGtSLhtGiPdsn1LI4o-71" value="fieldBuilder" style="text;html=1;align=center;verticalAlign=middle;resizable=0;points=[];;autosize=1;" vertex="1" parent="1">
          <mxGeometry x="-106" y="435" width="70" height="20" as="geometry"/>
        </mxCell>
        <mxCell id="KrvGtSLhtGiPdsn1LI4o-72" value="" style="endArrow=open;endFill=1;endSize=12;html=1;" edge="1" parent="1" target="KrvGtSLhtGiPdsn1LI4o-71">
          <mxGeometry width="160" relative="1" as="geometry">
            <mxPoint x="297" y="445" as="sourcePoint"/>
            <mxPoint x="-123" y="445" as="targetPoint"/>
          </mxGeometry>
        </mxCell>
        <mxCell id="KrvGtSLhtGiPdsn1LI4o-73" value="" style="endArrow=open;endFill=1;endSize=12;html=1;" edge="1" parent="1">
          <mxGeometry width="160" relative="1" as="geometry">
            <mxPoint x="420" y="540" as="sourcePoint"/>
            <mxPoint x="-120" y="540" as="targetPoint"/>
          </mxGeometry>
        </mxCell>
        <mxCell id="KrvGtSLhtGiPdsn1LI4o-74" value="field" style="text;html=1;align=center;verticalAlign=middle;resizable=0;points=[];;autosize=1;" vertex="1" parent="1">
          <mxGeometry x="-103" y="540" width="40" height="20" as="geometry"/>
        </mxCell>
      </root>
    </mxGraphModel>
  </diagram>
  <diagram id="9RsWCZkaL4Cdf3zQOJjR" name="Page-2">
    <mxGraphModel dx="2032" dy="764" grid="1" gridSize="10" guides="1" tooltips="1" connect="1" arrows="1" fold="1" page="1" pageScale="1" pageWidth="850" pageHeight="1100" math="0" shadow="0">
      <root>
        <mxCell id="JcmdZ0oK_CkF6V-TFWFE-0"/>
        <mxCell id="JcmdZ0oK_CkF6V-TFWFE-1" parent="JcmdZ0oK_CkF6V-TFWFE-0"/>
        <mxCell id="JcmdZ0oK_CkF6V-TFWFE-2" value=": farm" style="shape=umlLifeline;perimeter=lifelinePerimeter;whiteSpace=wrap;html=1;container=1;collapsible=0;recursiveResize=0;outlineConnect=0;" vertex="1" parent="JcmdZ0oK_CkF6V-TFWFE-1">
          <mxGeometry x="20" y="20" width="100" height="300" as="geometry"/>
        </mxCell>
        <mxCell id="JcmdZ0oK_CkF6V-TFWFE-3" value=": Yield" style="shape=umlLifeline;perimeter=lifelinePerimeter;whiteSpace=wrap;html=1;container=1;collapsible=0;recursiveResize=0;outlineConnect=0;" vertex="1" parent="JcmdZ0oK_CkF6V-TFWFE-1">
          <mxGeometry x="620" y="20" width="100" height="300" as="geometry"/>
        </mxCell>
        <mxCell id="JcmdZ0oK_CkF6V-TFWFE-27" value="" style="html=1;points=[];perimeter=orthogonalPerimeter;" vertex="1" parent="JcmdZ0oK_CkF6V-TFWFE-3">
          <mxGeometry x="45" y="220" width="10" height="70" as="geometry"/>
        </mxCell>
        <mxCell id="JcmdZ0oK_CkF6V-TFWFE-4" value=": Crop" style="shape=umlLifeline;perimeter=lifelinePerimeter;whiteSpace=wrap;html=1;container=1;collapsible=0;recursiveResize=0;outlineConnect=0;" vertex="1" parent="JcmdZ0oK_CkF6V-TFWFE-1">
          <mxGeometry x="420" y="20" width="100" height="300" as="geometry"/>
        </mxCell>
        <mxCell id="JcmdZ0oK_CkF6V-TFWFE-11" value="" style="html=1;points=[];perimeter=orthogonalPerimeter;" vertex="1" parent="JcmdZ0oK_CkF6V-TFWFE-4">
          <mxGeometry x="45" y="150" width="10" height="40" as="geometry"/>
        </mxCell>
        <mxCell id="JcmdZ0oK_CkF6V-TFWFE-5" value=": field" style="shape=umlLifeline;perimeter=lifelinePerimeter;whiteSpace=wrap;html=1;container=1;collapsible=0;recursiveResize=0;outlineConnect=0;" vertex="1" parent="JcmdZ0oK_CkF6V-TFWFE-1">
          <mxGeometry x="210" y="20" width="100" height="300" as="geometry"/>
        </mxCell>
        <mxCell id="JcmdZ0oK_CkF6V-TFWFE-8" value="" style="html=1;points=[];perimeter=orthogonalPerimeter;" vertex="1" parent="JcmdZ0oK_CkF6V-TFWFE-5">
          <mxGeometry x="45" y="110" width="10" height="20" as="geometry"/>
        </mxCell>
        <mxCell id="JcmdZ0oK_CkF6V-TFWFE-6" value="calcCrop(field)" style="html=1;verticalAlign=bottom;startArrow=oval;startFill=1;endArrow=block;startSize=8;" edge="1" parent="JcmdZ0oK_CkF6V-TFWFE-1">
          <mxGeometry x="-0.0769" width="60" relative="1" as="geometry">
            <mxPoint x="-60" y="100" as="sourcePoint"/>
            <mxPoint x="70" y="100" as="targetPoint"/>
            <mxPoint as="offset"/>
          </mxGeometry>
        </mxCell>
        <mxCell id="JcmdZ0oK_CkF6V-TFWFE-7" value="" style="endArrow=open;endFill=1;endSize=12;html=1;" edge="1" parent="JcmdZ0oK_CkF6V-TFWFE-1" target="JcmdZ0oK_CkF6V-TFWFE-8">
          <mxGeometry width="160" relative="1" as="geometry">
            <mxPoint x="80" y="130" as="sourcePoint"/>
            <mxPoint x="250" y="130" as="targetPoint"/>
          </mxGeometry>
        </mxCell>
        <mxCell id="JcmdZ0oK_CkF6V-TFWFE-9" value="getCrop()" style="text;html=1;align=center;verticalAlign=middle;resizable=0;points=[];;autosize=1;" vertex="1" parent="JcmdZ0oK_CkF6V-TFWFE-1">
          <mxGeometry x="130" y="130" width="70" height="20" as="geometry"/>
        </mxCell>
        <mxCell id="JcmdZ0oK_CkF6V-TFWFE-10" value="" style="endArrow=open;endFill=1;endSize=12;html=1;" edge="1" parent="JcmdZ0oK_CkF6V-TFWFE-1" target="JcmdZ0oK_CkF6V-TFWFE-11">
          <mxGeometry width="160" relative="1" as="geometry">
            <mxPoint x="80" y="170" as="sourcePoint"/>
            <mxPoint x="460" y="170" as="targetPoint"/>
          </mxGeometry>
        </mxCell>
        <mxCell id="JcmdZ0oK_CkF6V-TFWFE-12" value="getYield()" style="text;html=1;align=center;verticalAlign=middle;resizable=0;points=[];;autosize=1;" vertex="1" parent="JcmdZ0oK_CkF6V-TFWFE-1">
          <mxGeometry x="330" y="170" width="70" height="20" as="geometry"/>
        </mxCell>
        <mxCell id="JcmdZ0oK_CkF6V-TFWFE-13" value="" style="endArrow=open;endFill=1;endSize=12;html=1;" edge="1" parent="JcmdZ0oK_CkF6V-TFWFE-1">
          <mxGeometry width="160" relative="1" as="geometry">
            <mxPoint x="80" y="240" as="sourcePoint"/>
            <mxPoint x="665" y="240" as="targetPoint"/>
          </mxGeometry>
        </mxCell>
        <mxCell id="JcmdZ0oK_CkF6V-TFWFE-15" value="calcYield(field)" style="text;html=1;align=center;verticalAlign=middle;resizable=0;points=[];;autosize=1;" vertex="1" parent="JcmdZ0oK_CkF6V-TFWFE-1">
          <mxGeometry x="515" y="240" width="90" height="20" as="geometry"/>
        </mxCell>
        <mxCell id="JcmdZ0oK_CkF6V-TFWFE-23" value="self call" style="edgeStyle=orthogonalEdgeStyle;html=1;align=left;spacingLeft=2;endArrow=block;rounded=0;entryX=1;entryY=0;" edge="1" parent="JcmdZ0oK_CkF6V-TFWFE-1">
          <mxGeometry relative="1" as="geometry">
            <mxPoint x="680" y="275" as="sourcePoint"/>
            <Array as="points">
              <mxPoint x="710" y="275"/>
              <mxPoint x="710" y="305"/>
            </Array>
            <mxPoint x="680" y="305" as="targetPoint"/>
          </mxGeometry>
        </mxCell>
        <mxCell id="JcmdZ0oK_CkF6V-TFWFE-24" value="" style="endArrow=open;endFill=1;endSize=12;html=1;" edge="1" parent="JcmdZ0oK_CkF6V-TFWFE-1" target="JcmdZ0oK_CkF6V-TFWFE-25">
          <mxGeometry width="160" relative="1" as="geometry">
            <mxPoint x="660" y="270" as="sourcePoint"/>
            <mxPoint x="270" y="270" as="targetPoint"/>
          </mxGeometry>
        </mxCell>
        <mxCell id="JcmdZ0oK_CkF6V-TFWFE-25" value="" style="html=1;points=[];perimeter=orthogonalPerimeter;" vertex="1" parent="JcmdZ0oK_CkF6V-TFWFE-1">
          <mxGeometry x="255" y="270" width="10" height="40" as="geometry"/>
        </mxCell>
        <mxCell id="JcmdZ0oK_CkF6V-TFWFE-26" value="getfield()" style="text;html=1;align=center;verticalAlign=middle;resizable=0;points=[];;autosize=1;" vertex="1" parent="JcmdZ0oK_CkF6V-TFWFE-1">
          <mxGeometry x="312.5" y="270" width="60" height="20" as="geometry"/>
        </mxCell>
        <mxCell id="JcmdZ0oK_CkF6V-TFWFE-29" value="" style="html=1;points=[];perimeter=orthogonalPerimeter;" vertex="1" parent="JcmdZ0oK_CkF6V-TFWFE-1">
          <mxGeometry x="670" y="275" width="10" height="30" as="geometry"/>
        </mxCell>
        <mxCell id="JcmdZ0oK_CkF6V-TFWFE-30" value="area =&amp;nbsp;" style="text;html=1;align=center;verticalAlign=middle;resizable=0;points=[];;autosize=1;" vertex="1" parent="JcmdZ0oK_CkF6V-TFWFE-1">
          <mxGeometry x="265" y="270" width="50" height="20" as="geometry"/>
        </mxCell>
        <mxCell id="JcmdZ0oK_CkF6V-TFWFE-31" value="field =" style="text;html=1;align=center;verticalAlign=middle;resizable=0;points=[];;autosize=1;" vertex="1" parent="JcmdZ0oK_CkF6V-TFWFE-1">
          <mxGeometry x="280" y="170" width="50" height="20" as="geometry"/>
        </mxCell>
      </root>
    </mxGraphModel>
  </diagram>
</mxfile>
